<?xml version="1.0" encoding="utf-8"?>
<!-- Generator: Adobe Illustrator 26.0.0, SVG Export Plug-In . SVG Version: 6.00 Build 0)  -->
<svg version="1.1" id="Layer_1" xmlns="http://www.w3.org/2000/svg" xmlns:xlink="http://www.w3.org/1999/xlink" x="0px" y="0px"
	 viewBox="0 0 500 500" style="enable-background:new 0 0 500 500;" xml:space="preserve">
<style type="text/css">
	.st0{fill:#F9A789;}
	.st1{fill:#ED8472;}
	.st2{fill:#45AAC0;}
	.st3{opacity:0.2588;}
	.st4{fill:#5FC2CF;}
	.st5{opacity:0.7608;fill:#377AA1;enable-background:new    ;}
	.st6{fill:#CAEBEB;}
	.st7{fill:#3A86A8;}
	.st8{opacity:0.749;fill:#D9675F;enable-background:new    ;}
	.st9{fill:#B84954;}
	.st10{fill:#7B3349;}
	.st11{fill:#9E6570;}
	.st12{fill:#A85162;}
	.st13{fill:#242940;}
	.st14{fill:#DF6E64;}
	.st15{fill:none;stroke:#DF6E64;stroke-width:2;stroke-linecap:round;stroke-miterlimit:10;}
	.st16{fill:#FFFFFF;}
</style>
<g>
	<g>
		<g>
			<g>
				<path class="st0" d="M447.11,500.4c-125.95,0.8-276.16,0.8-402.18,0c18.44-117.57,7.5-157.69,144.55-178.12
					c0-0.05,0.02-0.07,0.02-0.12c1.89-11.81,5.94-37.43,7.81-49.38c26.09-1.11,71.24-1.11,97.3,0l7.2,45.1l0.5,3.08l0.19,1.33
					C440.11,342.96,428.43,382.83,447.11,500.4z"/>
				<path class="st1" d="M301.85,317.84c-53.55,6.3-91.45-6.68-109.26-14.99l4.78-30.11l44.93-1.07l3.72-0.07l3.69,0.07l44.93,1.07
					L301.85,317.84z"/>
			</g>
			<g>
				<path class="st2" d="M447.11,500.4c-27.37,0.19-55.89,0.31-85.09,0.4c-105.04,0.36-218.49,0.21-317.09-0.4
					c18.44-117.57,7.5-157.69,144.55-178.12c0-0.05,0.02-0.07,0.02-0.12l56.75,47.82l56.06-49.05l0.19,1.33
					c40.22,6.04,67.68,13.73,86.88,24.53C435.87,372.91,433.9,417.18,447.11,500.4z"/>
				<g class="st3">
					<path class="st4" d="M447.11,500.4c-27.37,0.19-55.89,0.31-85.09,0.4v-70.83c0-31.13,10.18-59.9,27.37-83.17
						C435.87,372.91,433.9,417.18,447.11,500.4z"/>
					<path class="st4" d="M44.94,500.4c27.37,0.19,55.89,0.31,85.09,0.4v-70.83c0-31.13-10.18-59.9-27.37-83.17
						C56.18,372.91,58.17,417.18,44.94,500.4z"/>
				</g>
				<g>
					<g>
						<polygon class="st5" points="228.27,354.28 246.71,369.79 247.21,439.36 227.91,439.51 						"/>
						<g>
							<circle class="st6" cx="236.98" cy="387.64" r="5.56"/>
							<circle class="st6" cx="236.98" cy="418.25" r="5.56"/>
						</g>
					</g>
					<g>
						<path class="st4" d="M246.29,369.31l-55.47-53.46l-4.38-0.5c-10.56-1.18-21.05,2.75-28.22,10.58l0,0l7.05,44.03l15.22-8.9
							c7.88-4.62,17.33-5.8,26.09-3.24L246.29,369.31z"/>
						<path class="st4" d="M246.29,369.31l55.47-53.46l4.38-0.5c10.56-1.18,21.05,2.75,28.22,10.58l0,0l-7.05,44.03L320.5,366
							c-13.26-7.77-29.14-9.75-43.92-5.47L246.29,369.31z"/>
					</g>
					<path class="st7" d="M284.57,447.89v-5.68c0-1.49,1.21-2.72,2.72-2.72h61.34c1.49,0,2.72,1.21,2.72,2.72v5.68
						c0,1.49-1.21,2.72-2.72,2.72h-61.34C285.8,450.61,284.57,449.38,284.57,447.89z"/>
				</g>
			</g>
		</g>
		<g>
			<g>
				<g>
					<path class="st1" d="M343.78,167.74c17.93-5.78,36.19,1.07,40.77,15.29c4.58,14.22-6.24,30.44-24.17,36.22
						c-17.93,5.78-36.19-1.07-40.77-15.29C315.03,189.74,325.85,173.52,343.78,167.74z"/>
					<path class="st8" d="M352.24,180.2c11.37-2.59,22.23,2.48,24.24,11.32c2.02,8.85-5.56,18.12-16.94,20.72
						c-11.37,2.59-22.23-2.48-24.24-11.32C333.28,192.06,340.87,182.79,352.24,180.2z"/>
					<path class="st9" d="M371.29,183.66c-5.11-4.1-11.62-6.25-18.09-5.92c-6.44,0.31-12.76,3.08-17.47,7.65
						c0.26,1.7,0.5,3.41,0.76,5.11c4.43-5.07,10.56-8.45,17.07-9.47S366.88,181.36,371.29,183.66z"/>
				</g>
				<g>
					
						<ellipse transform="matrix(0.3067 -0.9518 0.9518 0.3067 -89.5329 263.9838)" class="st1" cx="136.44" cy="193.45" rx="27.06" ry="34.11"/>
					<path class="st8" d="M112.1,191.46c2.02-8.85,12.87-13.92,24.24-11.32c11.37,2.59,18.95,11.87,16.94,20.72
						c-2.02,8.85-12.87,13.92-24.24,11.32C117.66,209.58,110.08,200.3,112.1,191.46z"/>
					<path class="st9" d="M117.26,183.66c5.11-4.1,11.62-6.25,18.09-5.92c6.44,0.31,12.76,3.08,17.47,7.65
						c-0.26,1.7-0.5,3.41-0.76,5.11c-4.43-5.07-10.56-8.45-17.07-9.47C128.51,179.99,121.69,181.36,117.26,183.66z"/>
				</g>
			</g>
			<path class="st0" d="M351.35,159.2c0,70.19-47.94,140.65-107.08,140.65c-8.55,0-16.88-1.47-24.86-4.21
				c-47.16-16.15-82.24-76.4-82.24-136.43v-0.45c0.19-69.93,48.08-113.09,107.1-113.09C303.41,45.66,351.35,89.01,351.35,159.2z"/>
			<g>
				<path class="st10" d="M378.15,67.51c-7.24,1.23-16.52,5.68-20.12,8c8.71,2.86,17.23,14.65,19.39,29.69
					c-6.27-2.72-12.74-0.57-16.76,0.85c-0.19,0.05-0.36,0.12-0.54,0.19c0.57,24.53-3.86,63.61-12.29,87.24
					c0-16.6-4.36-30.49-9.59-45.03c-5.21-14.51-9.02-22.02-10.61-42.83c-0.02-0.05-0.02-0.09-0.02-0.14
					c-58.64,0.09-108.88-1.63-164.35,2.72c0,0.12,0,0.21-0.02,0.31c-0.95,21.4-6.18,26.33-11.88,38.75
					c-5.71,12.48-10.37,29.12-10.37,48.44c-9.45-21.69-10.54-87.67-10.54-87.67s-11.01-10.89-24.22-10.06
					c3.91-8.55,16.62-18.25,28.12-15.89c-1.11-9.45-11.79-21.73-22.82-26.52c18.28-4.47,27.86,1.44,34.94,11.74
					c2.23-8.93,6.04-17.02,11.2-24.24c36.15-50.71,137.38-58.1,201.21-8.38c-9.47,0.9-16.1,5-21.61,10.54
					c14.06-1.35,28.22,1.82,41.41,22.14C378.53,67.44,378.34,67.49,378.15,67.51z"/>
				<path class="st11" d="M360.13,106.22c0.57,24.53-3.86,63.61-12.29,87.24c0-16.6-4.36-30.49-9.59-45.03
					c-5.21-14.51-9.02-22.02-10.61-42.83l0.24-0.43l32.74,0.85C360.49,106.1,360.3,106.17,360.13,106.22z"/>
				<path class="st11" d="M163.28,108.54c-0.95,21.4-6.18,26.33-11.88,38.75c-5.71,12.48-10.37,29.12-10.37,48.44
					c-9.45-21.69-12.83-57.95-10.54-87.67L163.28,108.54z"/>
				<path class="st12" d="M378.72,67.42c-0.19,0.02-0.38,0.07-0.57,0.12c-21.83-15.91-50.99-21.87-77.11-14.65
					c7.22-10.06,18.47-17.16,30.66-19.34c-25.66-8.48-52.3-11.22-78.5-8.85c10.98-5.71,23.53-8.36,35.89-7.6
					c-43.66-14.16-95.15-3.67-131.37,26.02c36.15-50.71,137.38-58.1,201.21-8.38c-9.47,0.9-16.1,5-21.61,10.54
					C351.38,43.93,365.53,47.11,378.72,67.42z"/>
			</g>
			<g>
				<g>
					<path class="st10" d="M217.57,158.64c-6.39-6.87-16.69-10.96-28.01-10.16c-11.29,0.78-20.9,6.25-26.28,13.9
						c0.36-13.9,11.22-25.5,25.38-26.49C202.87,134.91,215.27,144.9,217.57,158.64z"/>
					<path class="st10" d="M270.98,158.64c6.39-6.87,16.69-10.96,28.01-10.16c11.29,0.78,20.9,6.25,26.28,13.9
						c-0.36-13.9-11.22-25.5-25.38-26.49C285.7,134.91,273.27,144.9,270.98,158.64z"/>
				</g>
				<g>
					<circle class="st13" cx="200.81" cy="183.35" r="6.68"/>
					<circle class="st13" cx="286.67" cy="183.35" r="6.68"/>
				</g>
				<path class="st14" d="M236.63,261.31c6.13,1.49,12.52,1.94,18.82,1.33c-1.89,3.43-5.78,5.68-9.71,5.59
					C241.81,268.15,238.02,265.76,236.63,261.31z"/>
				<path class="st15" d="M238.09,180.53c2.58,8,2.46,16.83-1.11,24.74c1.52,5.33,3.05,10.65,4.57,16"/>
				<path class="st16" d="M210.77,234.68c24.03,4.57,49.12,3.34,73.32-3.31c1.44,4.12-0.57,8.83-3.86,11.7s-7.6,4.21-11.84,5.23
					c-12.29,2.94-25.12,3.67-37.67,2.11c-5.18-0.64-10.46-1.73-14.84-4.59C211.51,242.94,208.19,237.97,210.77,234.68z"/>
			</g>
		</g>
	</g>
</g>
</svg>
